<svg aria-hidden="true" focusable="false" width="68" height="21" viewBox="0 0 68 21" fill="none" xmlns="http://www.w3.org/2000/svg">
<path d="M6.15 0.599999C7.66067 0.599999 8.93667 1.11333 9.978 2.14C11.0193 3.16667 11.54 4.41333 11.54 5.88C11.54 7.34667 11.0193 8.59333 9.978 9.62C8.93667 10.6467 7.66067 11.16 6.15 11.16H3.84V16H0.32V0.599999H6.15ZM6.15 7.86C6.69267 7.86 7.14 7.66933 7.492 7.288C7.844 6.90667 8.02 6.43733 8.02 5.88C8.02 5.32267 7.844 4.85333 7.492 4.472C7.14 4.09067 6.69267 3.9 6.15 3.9H3.84V7.86H6.15ZM20.5065 5H23.8065V16H20.5065V14.966C19.7292 15.8607 18.6365 16.308 17.2285 16.308C15.7765 16.308 14.5372 15.7507 13.5105 14.636C12.4839 13.5067 11.9705 12.128 11.9705 10.5C11.9705 8.872 12.4839 7.50067 13.5105 6.386C14.5372 5.25667 15.7765 4.692 17.2285 4.692C18.6365 4.692 19.7292 5.13933 20.5065 6.034V5ZM15.9965 12.458C16.4805 12.942 17.1112 13.184 17.8885 13.184C18.6659 13.184 19.2965 12.942 19.7805 12.458C20.2645 11.974 20.5065 11.3213 20.5065 10.5C20.5065 9.67867 20.2645 9.026 19.7805 8.542C19.2965 8.058 18.6659 7.816 17.8885 7.816C17.1112 7.816 16.4805 8.058 15.9965 8.542C15.5125 9.026 15.2705 9.67867 15.2705 10.5C15.2705 11.3213 15.5125 11.974 15.9965 12.458ZM33.1576 5H36.6776L32.9156 15.67C32.2996 17.4007 31.4856 18.64 30.4736 19.388C29.4762 20.136 28.2002 20.4733 26.6456 20.4V17.32C27.4082 17.32 27.9949 17.1807 28.4056 16.902C28.8162 16.638 29.1462 16.1687 29.3956 15.494L25.0176 5H28.6476L31.0896 11.732L33.1576 5ZM50.2136 4.692C51.4749 4.692 52.4869 5.11 53.2496 5.946C54.0123 6.76733 54.3936 7.86733 54.3936 9.246V16H51.0936V9.532C51.0936 8.97467 50.9543 8.53467 50.6756 8.212C50.4116 7.88933 50.0229 7.728 49.5096 7.728C48.9669 7.728 48.5416 7.91133 48.2336 8.278C47.9403 8.64467 47.7936 9.15067 47.7936 9.796V16H44.4936V9.532C44.4936 8.97467 44.3543 8.53467 44.0756 8.212C43.8116 7.88933 43.4229 7.728 42.9096 7.728C42.3669 7.728 41.9416 7.91133 41.6336 8.278C41.3403 8.64467 41.1936 9.15067 41.1936 9.796V16H37.8936V5H41.1936V6.012C41.7949 5.132 42.7776 4.692 44.1416 4.692C45.4176 4.692 46.3783 5.176 47.0236 6.144C47.6983 5.176 48.7616 4.692 50.2136 4.692ZM59.5975 11.82C59.9788 12.8467 60.8588 13.36 62.2375 13.36C63.1321 13.36 63.8361 13.0813 64.3495 12.524L66.9895 14.042C65.9041 15.5527 64.3055 16.308 62.1935 16.308C60.3455 16.308 58.8641 15.758 57.7495 14.658C56.6495 13.558 56.0995 12.172 56.0995 10.5C56.0995 8.84267 56.6421 7.464 57.7275 6.364C58.8275 5.24933 60.2355 4.692 61.9515 4.692C63.5501 4.692 64.8775 5.24933 65.9335 6.364C67.0041 7.464 67.5395 8.84267 67.5395 10.5C67.5395 10.9693 67.4955 11.4093 67.4075 11.82H59.5975ZM59.5315 9.356H64.2615C63.9388 8.19733 63.1615 7.618 61.9295 7.618C60.6535 7.618 59.8541 8.19733 59.5315 9.356Z" fill="#25A4AD"/>
</svg>
